<?xml version="1.0" standalone="no"?>
<!DOCTYPE svg PUBLIC "-//W3C//DTD SVG 20010904//EN"
 "http://www.w3.org/TR/2001/REC-SVG-20010904/DTD/svg10.dtd">
<svg version="1.0" xmlns="http://www.w3.org/2000/svg"
 width="1024.000000pt" height="1024.000000pt" viewBox="0 0 1024.000000 1024.000000"
 preserveAspectRatio="xMidYMid meet">

<g transform="translate(0.000000,1024.000000) scale(0.100000,-0.100000)"
fill="#000000" stroke="none">
<path d="M0 5120 l0 -5120 5120 0 5120 0 0 5120 0 5120 -2600 0 -2600 0 0
-980 0 -980 98 0 c103 0 316 -28 423 -55 539 -137 998 -460 1301 -915 155
-232 260 -471 327 -740 43 -176 51 -240 51 -445 0 -207 -16 -341 -59 -509 -62
-236 -138 -388 -451 -896 -42 -69 -112 -183 -155 -255 -76 -125 -182 -295
-308 -495 -33 -52 -96 -153 -139 -224 -43 -70 -116 -187 -162 -260 -46 -72
-133 -210 -193 -306 -60 -96 -155 -245 -210 -330 -359 -556 -370 -571 -441
-602 -91 -41 -162 -7 -265 124 -74 95 -359 530 -497 758 -51 85 -110 180 -130
210 -80 120 -350 563 -535 880 -43 74 -112 189 -154 255 -41 66 -107 174 -147
240 -39 66 -100 167 -136 225 -213 346 -308 574 -357 866 -27 156 -29 483 -5
638 22 142 67 315 108 421 40 101 40 98 26 90 -6 -4 -10 5 -10 19 0 14 5 26
10 26 6 0 10 8 10 18 0 14 -2 15 -10 2 -10 -17 -15 -14 -25 18 -6 21 -4 22 22
17 23 -4 24 -4 8 4 -14 7 -15 10 -5 10 13 1 13 2 0 11 -12 7 -13 15 -3 39 12
34 -1 81 -24 81 -16 0 -21 19 -15 58 3 24 1 32 -11 32 -9 0 -19 -5 -23 -12 -4
-7 -3 -8 4 -4 8 5 12 -2 12 -21 -1 -25 -2 -26 -11 -9 -10 17 -13 16 -26 -13
-17 -35 -33 -41 -33 -12 0 11 8 22 18 24 9 3 0 5 -20 6 -46 1 -51 21 -5 22 17
1 36 1 40 0 5 -1 6 3 3 8 -7 11 16 21 57 22 20 1 24 3 12 6 -11 2 -30 9 -42
15 -13 6 -26 8 -30 5 -3 -4 0 -7 8 -7 8 0 -1 -9 -19 -20 -18 -11 -37 -18 -43
-15 -5 4 -14 3 -21 -1 -7 -5 -30 -7 -51 -5 -27 2 -37 -1 -32 -8 3 -6 9 -9 13
-7 4 2 13 -2 20 -10 11 -12 10 -14 -5 -11 -46 7 -57 37 -20 56 16 9 17 10 2 5
-56 -18 -62 -17 -64 15 -4 70 -6 81 -13 81 -5 0 -8 -9 -8 -20 0 -11 -5 -20
-11 -20 -6 0 -8 9 -4 23 5 17 4 19 -4 7 -7 -10 -11 -11 -11 -3 0 7 -10 12 -22
10 -15 -1 -23 4 -26 18 -6 29 -22 45 -44 45 -12 0 -17 -5 -14 -12 3 -7 9 -21
12 -30 4 -10 13 -18 22 -18 8 0 13 -2 10 -5 -12 -12 -58 8 -56 24 2 12 -4 15
-22 13 l-25 -3 23 17 c24 16 23 50 -2 66 -6 5 -1 8 13 8 19 0 23 4 19 25 -4
18 -1 25 10 25 13 0 12 3 -4 15 -10 8 -14 15 -9 15 6 0 3 4 -5 10 -8 5 -11 12
-7 16 4 4 18 -3 32 -16 23 -22 24 -22 22 -2 0 12 -6 18 -14 15 -7 -3 -13 -1
-13 5 0 6 6 12 13 15 6 2 8 8 4 13 -4 5 -12 3 -16 -4 -4 -7 -15 -10 -24 -6
-12 4 -20 -1 -27 -20 -11 -29 -22 -33 -39 -13 -13 16 -5 28 15 20 8 -3 18 5
24 22 13 34 13 45 -1 45 -5 0 -7 -4 -4 -10 3 -5 -1 -10 -9 -10 -9 0 -16 5 -16
10 0 24 -31 7 -37 -20 -6 -34 -23 -41 -23 -9 0 12 -8 23 -19 26 -18 5 -39 34
-23 32 18 -3 32 2 32 11 0 6 -10 10 -22 10 -32 0 -68 11 -68 20 0 7 30 7 93 2
10 -1 17 -10 17 -22 0 -11 5 -20 10 -20 13 0 13 37 0 45 -6 4 -8 11 -5 16 4 5
2 9 -4 9 -5 0 -12 -6 -14 -12 -4 -10 -8 -9 -16 2 -8 12 -6 16 12 22 12 3 15 6
7 7 -8 1 -30 -3 -48 -8 -32 -10 -33 -9 -30 17 2 19 10 28 25 30 13 2 20 8 17
16 -6 14 22 30 37 21 5 -4 6 2 2 11 -4 12 -3 15 5 10 7 -4 12 -14 12 -22 0 -8
5 -14 10 -14 6 0 10 7 10 15 0 8 5 15 11 15 5 0 7 5 3 11 -4 8 -9 7 -16 -2 -7
-11 -11 -11 -15 -1 -7 17 -18 15 -39 -5 -17 -17 -17 -17 -11 -1 3 10 2 20 -4
24 -6 3 -8 12 -6 19 4 8 -5 11 -29 9 -31 -2 -39 4 -35 29 0 4 -3 7 -9 7 -5 0
-7 8 -3 18 5 14 4 15 -8 4 -11 -10 -11 -16 -1 -33 8 -12 11 -23 8 -26 -10 -10
-36 19 -36 38 0 14 -7 19 -25 19 -37 0 -30 20 8 21 l32 2 -30 4 -30 5 25 14
25 15 -25 -7 c-13 -4 -30 -13 -38 -20 -7 -8 -15 -14 -18 -14 -8 0 -4 9 11 24
14 13 13 18 -5 48 l-20 33 0 -32 c0 -18 -4 -33 -10 -33 -5 0 -10 16 -10 35 0
19 5 35 10 35 6 0 10 8 11 18 0 10 3 12 6 4 2 -6 9 -10 14 -6 9 5 14 -24 9
-56 -1 -12 1 -12 10 -3 14 13 43 6 34 -9 -4 -6 2 -8 12 -6 13 2 24 -6 34 -27
19 -38 43 -39 45 -3 1 19 -2 25 -12 21 -12 -5 -12 -7 -1 -15 10 -8 10 -9 -2
-5 -10 2 -14 14 -12 36 3 23 -2 37 -15 46 -27 21 -39 18 -18 -5 15 -17 16 -20
3 -20 -21 0 -41 26 -32 41 5 9 2 10 -9 6 -9 -3 -28 3 -43 16 -19 14 -29 17
-32 9 -2 -7 -8 -12 -14 -12 -6 0 -8 7 -4 15 3 8 1 15 -5 15 -7 0 -10 -14 -7
-34 3 -24 0 -32 -9 -29 -17 7 -17 -12 1 -26 20 -17 27 -61 10 -61 -8 0 -14 9
-14 21 0 12 -8 23 -20 26 -11 3 -20 12 -20 20 0 8 4 11 10 8 5 -3 12 6 15 20
3 14 7 36 10 50 3 14 1 25 -5 25 -10 0 -14 -19 -11 -52 2 -19 -12 -18 -56 5
-33 17 -37 40 -18 90 4 10 0 27 -9 42 -19 29 -20 35 -3 35 7 0 17 -10 22 -22
6 -12 16 -24 23 -26 11 -3 11 -1 0 17 -11 18 -11 23 1 30 8 5 9 11 3 15 -6 3
-12 1 -14 -6 -3 -9 -10 -8 -23 5 -16 17 -19 17 -27 3 -5 -9 -13 -14 -19 -11
-5 3 -7 0 -4 -7 3 -7 0 -20 -5 -28 -15 -23 -29 6 -23 47 4 21 2 33 -6 33 -11
0 -13 -11 -14 -57 0 -12 -3 -20 -8 -17 -4 2 -6 12 -3 22 5 16 5 16 -6 0 -15
-24 -20 -23 -53 8 -15 14 -31 23 -35 20 -4 -2 -8 4 -8 14 0 18 2 18 18 3 10
-9 21 -13 25 -9 5 4 0 12 -10 17 -19 11 -24 59 -6 59 7 0 9 -10 7 -25 -5 -26
6 -35 15 -12 3 6 8 -3 12 -21 10 -43 23 -49 35 -18 5 14 14 26 20 26 5 0 10 7
10 17 0 15 -1 15 -18 0 -10 -10 -21 -17 -25 -17 -11 0 -3 45 11 63 14 15 13
17 -12 17 -19 0 -29 7 -35 24 -11 26 -51 43 -51 20 0 -8 -4 -14 -10 -14 -14 0
-12 28 3 33 6 2 8 8 4 13 -4 5 -12 2 -16 -5 -5 -7 -13 -11 -19 -7 -6 3 -14 1
-18 -5 -4 -8 -3 -9 4 -5 7 4 12 4 13 -1 0 -4 2 -21 4 -37 4 -26 3 -27 -14 -12
-10 9 -20 13 -24 10 -4 -4 -2 8 3 26 12 41 11 40 46 43 16 1 34 9 41 17 7 8
13 10 13 5 0 -6 -6 -17 -12 -24 -11 -10 -9 -12 7 -9 12 2 19 10 17 20 -1 9 2
19 8 23 6 4 10 -11 10 -39 0 -30 4 -46 13 -46 8 0 11 14 9 45 -3 38 -2 44 12
39 19 -7 21 -21 4 -26 -9 -3 -9 -6 0 -12 7 -4 12 -2 12 4 0 6 3 9 8 7 4 -3 8
7 8 21 1 15 -1 21 -3 14 -4 -10 -9 -9 -24 4 -11 10 -19 12 -19 6 0 -7 -4 -12
-10 -12 -5 0 -10 14 -10 30 0 32 16 41 23 13 3 -10 5 -2 6 17 0 20 6 41 13 48
9 9 9 12 0 12 -7 0 -12 9 -12 20 0 11 -5 20 -11 20 -6 0 0 13 13 28 19 24 24
26 30 13 5 -13 7 -14 7 -1 0 8 -4 22 -9 30 -8 13 -10 13 -10 1 0 -11 -4 -9
-16 5 -14 18 -15 18 -4 -5 10 -20 8 -27 -14 -50 -15 -15 -23 -31 -19 -36 5 -4
-2 -6 -14 -3 -12 3 -23 2 -25 -2 -2 -4 -14 -11 -28 -15 -22 -7 -23 -6 -8 9 9
9 21 16 26 16 5 0 21 11 37 24 23 20 26 28 20 55 -3 17 -11 31 -16 31 -6 0 -7
-4 -4 -10 3 -5 0 -10 -8 -10 -8 0 -18 -7 -21 -16 -9 -24 -7 -31 4 -14 7 11 10
11 10 2 0 -22 -20 -53 -31 -47 -5 4 -9 1 -9 -4 0 -6 -5 -11 -11 -11 -6 0 -9 7
-5 15 3 9 0 15 -8 15 -8 0 -16 -6 -19 -12 -2 -8 -8 -9 -13 -4 -5 5 -4 11 4 13
6 3 12 11 12 20 0 10 7 13 23 8 20 -5 20 -5 4 5 -10 7 -27 10 -38 7 -12 -3
-19 0 -19 9 0 8 9 14 20 14 11 0 20 4 20 10 0 5 7 7 15 4 8 -4 15 -2 15 4 0 6
-6 13 -12 15 -10 4 -10 6 0 6 14 1 16 42 3 56 -5 6 -11 23 -13 40 -3 27 -7 30
-43 32 l-40 3 28 -16 c37 -20 27 -31 -13 -14 -39 16 -39 39 1 47 26 5 30 9 24
30 -3 13 -1 33 6 44 6 11 8 28 4 37 -5 14 -9 13 -20 -8 -8 -14 -14 -20 -15
-13 0 6 -3 18 -6 26 -4 10 1 17 15 19 16 2 18 6 10 18 -8 11 -12 12 -16 2 -2
-6 -9 -10 -14 -6 -5 3 -9 1 -9 -5 0 -7 -8 -7 -25 -1 -14 5 -38 7 -54 4 -16 -4
-32 -1 -35 5 -5 7 3 12 21 12 22 2 20 3 -12 9 -40 7 -40 7 14 9 40 1 57 -3 66
-16 12 -16 14 -16 29 -1 10 10 12 19 6 23 -6 4 -7 13 -1 23 10 19 4 42 -11 42
-5 0 -8 -12 -6 -27 2 -20 -2 -29 -14 -31 -14 -3 -18 4 -18 32 0 19 -7 41 -15
50 -9 9 -11 17 -5 21 5 3 10 1 10 -4 0 -6 5 -11 10 -11 15 0 12 36 -5 50 -15
13 -136 20 -128 8 2 -5 11 -8 19 -8 8 0 14 -5 14 -10 0 -6 -21 1 -47 15 -27
14 -54 25 -62 25 -11 0 -12 3 -4 11 9 9 20 9 44 0 18 -6 35 -9 37 -6 3 3 0 5
-6 5 -7 0 -12 9 -12 20 0 11 4 20 10 20 5 0 7 7 4 15 -4 8 -2 15 3 15 5 0 7
14 5 31 -3 17 0 34 5 38 14 9 25 61 13 61 -5 0 -10 12 -10 27 0 20 -3 24 -11
16 -8 -8 -9 -23 -2 -51 9 -34 8 -40 -10 -51 -15 -10 -17 -15 -7 -21 20 -12 4
-80 -19 -80 -10 0 -28 -9 -41 -20 -25 -22 -36 -25 -44 -11 -3 5 5 12 19 15 14
4 25 13 25 22 0 8 5 12 10 9 6 -3 10 -1 10 4 0 6 -9 11 -20 11 -11 0 -20 7
-20 15 0 10 -10 15 -27 15 l-28 -1 24 -20 c23 -19 23 -20 5 -34 -23 -17 -25
-17 -44 -5 -12 8 -11 10 8 10 12 0 22 5 22 10 0 6 -11 10 -24 10 -19 0 -22 4
-18 25 2 14 9 25 16 24 30 -4 36 3 36 37 0 19 -5 44 -10 55 -8 14 -7 19 3 19
7 0 18 -5 24 -11 7 -7 25 -13 42 -14 26 -2 29 0 21 19 -6 17 -16 21 -49 20
-28 -1 -38 2 -29 8 10 8 10 11 1 15 -7 2 -13 11 -13 19 0 8 -9 14 -20 14 -11
0 -20 -5 -20 -11 0 -6 -9 -8 -20 -4 -15 5 -20 2 -20 -13 0 -27 -11 -34 -28
-19 -13 10 -15 9 -9 -7 6 -16 4 -17 -20 -11 -16 5 -36 8 -45 9 -9 0 -14 4 -11
9 3 5 12 6 20 3 8 -3 12 -2 9 3 -3 5 6 12 22 16 15 4 21 10 15 12 -7 3 -38 -7
-68 -22 -50 -23 -57 -24 -71 -10 -8 8 -22 15 -30 15 -8 0 -14 4 -14 10 0 5 7
7 14 4 8 -3 25 4 37 15 18 16 25 18 32 9 6 -9 7 -5 3 11 -3 18 -2 21 6 13 8
-8 8 -18 0 -34 -6 -13 -11 -17 -11 -10 -1 17 -21 15 -21 -3 0 -8 9 -15 20 -15
11 0 20 7 20 15 0 8 5 15 10 15 16 0 12 30 -5 37 -14 5 -14 7 0 23 15 16 15
19 0 34 -9 9 -13 20 -10 26 9 15 25 12 25 -4 0 -8 7 -16 15 -20 19 -7 19 8 0
28 -8 8 -15 19 -15 25 0 6 -5 11 -11 11 -5 0 -7 5 -4 10 3 6 -4 10 -18 10 -31
0 -53 42 -31 60 8 7 14 19 14 26 0 8 8 14 19 14 10 0 24 7 31 15 7 8 17 15 23
15 6 0 2 -10 -9 -22 -23 -27 -22 -88 2 -88 13 0 18 -14 17 -47 -1 -7 4 -10 9
-7 6 4 15 0 20 -7 7 -10 8 -9 4 6 -4 14 0 23 16 30 22 10 35 46 15 41 -7 -2
-9 -1 -4 1 11 7 9 33 -3 33 -5 0 -10 -7 -10 -15 0 -8 -6 -15 -12 -15 -10 0 -9
-3 1 -9 11 -7 11 -10 0 -15 -8 -3 -3 -3 11 -1 24 6 24 5 -3 -10 -16 -9 -30
-15 -31 -13 -2 2 -1 36 2 76 3 52 8 72 18 72 8 0 14 5 14 10 0 6 -4 10 -10 10
-5 0 -7 7 -4 15 4 8 3 15 -1 15 -11 0 -34 -27 -28 -34 4 -3 1 -6 -5 -6 -7 0
-12 8 -13 18 0 15 -2 14 -10 -3 -8 -17 -9 -17 -4 5 2 14 5 32 5 41 0 12 11 18
35 21 25 3 35 0 35 -9 0 -8 7 -16 15 -19 8 -4 15 -15 15 -25 0 -12 7 -19 20
-19 11 0 20 5 20 10 0 6 10 10 23 11 21 1 21 1 -3 8 -17 5 -26 3 -28 -6 -6
-22 -17 -15 -30 19 -13 36 -12 38 16 41 13 1 18 6 14 16 -3 9 -7 10 -9 4 -4
-12 -62 12 -75 31 -5 7 -8 4 -8 -6 0 -10 -4 -18 -10 -18 -5 0 -7 7 -4 15 9 22
-19 19 -40 -4 -12 -13 -15 -27 -10 -45 5 -21 3 -26 -12 -26 -11 0 -28 -3 -39
-6 -16 -4 -21 0 -23 20 -1 14 3 26 8 26 6 0 9 -5 7 -11 -1 -6 4 -14 12 -17 8
-3 11 0 7 7 -4 6 -2 11 3 11 6 0 11 7 11 15 0 8 -5 15 -11 15 -6 0 -3 7 6 17
12 12 19 13 24 4 11 -18 44 23 37 46 -5 15 -17 19 -58 21 -32 1 -55 -3 -60
-11 -6 -9 -10 -9 -16 1 -6 8 -8 -3 -7 -31 l1 -44 -33 10 c-34 11 -45 27 -18
27 16 0 20 18 7 36 -4 5 -44 11 -88 12 -75 1 -82 -1 -93 -21 l-11 -22 5 22 c7
25 -12 26 -41 3 -16 -13 -17 -13 -11 3 6 16 -17 17 -398 17 l-405 0 0 -5120z
m969 5074 c-6 -7 -15 -11 -21 -8 -5 3 -4 12 3 20 6 7 15 11 21 8 5 -3 4 -12
-3 -20z m-133 7 c-3 -5 1 -14 9 -21 8 -7 12 -17 8 -22 -3 -6 -12 0 -19 13 -19
34 -17 14 2 -22 10 -19 21 -29 30 -25 18 7 18 -3 -1 -48 -17 -39 -35 -48 -35
-16 0 11 -5 20 -11 20 -7 0 -9 -10 -7 -25 3 -14 1 -25 -4 -25 -6 0 -8 24 -6
55 2 32 -1 55 -7 55 -5 0 -3 6 7 13 12 10 14 17 6 31 -7 13 -7 17 0 12 6 -3
13 -2 17 4 3 5 8 10 11 10 3 0 3 -4 0 -9z m73 -26 c11 3 22 1 25 -4 4 -6 -3
-9 -16 -7 -39 4 -57 17 -51 33 5 13 8 12 15 -6 6 -16 13 -21 27 -16z m-319 -1
c0 -8 -4 -12 -10 -9 -5 3 -10 13 -10 21 0 8 5 12 10 9 6 -3 10 -13 10 -21z
m404 5 c-19 -21 -19 -22 1 -16 11 4 26 3 33 -2 10 -6 3 -11 -23 -15 -20 -4
-39 -5 -42 -3 -7 8 28 57 40 57 5 0 2 -10 -9 -21z m-287 -31 c1 -30 1 -31 -6
-8 -7 21 -5 40 2 40 2 0 3 -15 4 -32z m167 -3 c-7 -16 -24 -21 -24 -6 0 8 7
13 27 20 1 1 0 -6 -3 -14z m-109 -5 c4 -6 -5 -10 -19 -10 -14 0 -26 5 -26 10
0 6 9 10 19 10 11 0 23 -4 26 -10z m185 0 c0 -5 -7 -10 -15 -10 -21 0 -19 -46
1 -54 19 -7 17 -8 33 21 7 15 17 20 28 16 11 -4 14 -3 9 5 -5 8 1 12 16 11 13
0 17 -3 9 -6 -11 -5 -11 -7 0 -14 10 -6 7 -9 -11 -9 -20 0 -22 -2 -10 -11 12
-8 11 -9 -5 -7 -15 2 -20 -3 -20 -22 0 -14 -4 -28 -10 -32 -6 -4 -2 -13 10
-22 11 -9 31 -25 45 -36 l25 -21 -27 17 c-16 9 -28 12 -28 6 0 -6 8 -16 18
-21 10 -6 12 -11 4 -11 -7 0 -10 -4 -7 -10 3 -5 -1 -10 -9 -10 -9 0 -16 -9
-16 -20 0 -11 -5 -20 -11 -20 -7 0 -9 10 -7 25 5 22 2 24 -21 20 l-26 -5 28
12 c15 7 27 16 27 21 0 4 5 5 10 2 6 -4 7 -11 4 -17 -4 -7 -2 -8 4 -4 14 9
-18 66 -33 59 -8 -2 -10 6 -7 26 3 23 0 30 -17 36 -11 3 -24 4 -28 2 -5 -3
-14 1 -21 9 -11 12 -9 17 8 16 3 0 6 8 6 18 0 10 -4 16 -8 14 -4 -3 -8 -1 -8
5 0 11 29 30 48 31 6 0 12 -4 12 -10z m-298 -32 c-9 -9 -12 -7 -12 12 0 19 3
21 12 12 9 -9 9 -15 0 -24z m661 25 c-7 -2 -19 -2 -25 0 -7 3 -2 5 12 5 14 0
19 -2 13 -5z m-786 -45 c-3 -7 -5 -2 -5 12 0 14 2 19 5 13 2 -7 2 -19 0 -25z
m43 11 c0 -5 -4 -9 -10 -9 -5 0 -10 7 -10 16 0 8 5 12 10 9 6 -3 10 -10 10
-16z m187 14 c-11 -3 -16 -11 -13 -18 3 -9 0 -12 -10 -8 -28 10 -10 32 26 31
9 0 8 -2 -3 -5z m293 -63 c-12 -22 -31 -23 -38 -2 -2 7 6 12 17 12 12 0 21 5
21 12 0 6 3 9 6 6 3 -4 0 -16 -6 -28z m39 -17 c8 -49 28 -54 25 -6 l-3 38 7
-35 c7 -34 8 -34 15 -10 6 18 10 21 14 11 3 -9 -5 -24 -21 -38 -15 -13 -22
-23 -17 -23 6 0 11 -4 11 -8 0 -5 -7 -9 -15 -9 -8 0 -12 4 -9 9 3 4 -1 8 -8 8
-11 0 -10 2 0 9 11 7 11 9 -2 14 -12 5 -15 15 -11 34 3 16 2 21 -1 13 -4 -8
-15 -23 -26 -34 -14 -15 -21 -17 -30 -8 -7 7 -8 12 -2 12 5 0 2 5 -6 10 -11 8
-9 9 11 5 22 -6 28 -2 39 25 15 36 21 33 29 -17z m-342 5 c-3 -8 -6 -5 -6 6
-1 11 2 17 5 13 3 -3 4 -12 1 -19z m163 -23 c0 -20 6 -25 35 -31 35 -6 44 -17
25 -29 -5 -3 -10 -2 -10 4 0 5 -16 15 -35 21 -27 9 -35 17 -35 36 0 13 5 24
10 24 6 0 10 -11 10 -25z m-67 -2 c-7 -2 -19 -2 -25 0 -7 3 -2 5 12 5 14 0 19
-2 13 -5z m350 0 c-7 -2 -19 -2 -25 0 -7 3 -2 5 12 5 14 0 19 -2 13 -5z m-326
-40 c-3 -10 -5 -4 -5 12 0 17 2 24 5 18 2 -7 2 -21 0 -30z m372 -25 c-1 -31
-1 -31 -8 -8 -5 14 -6 28 -4 33 9 15 13 6 12 -25z m-293 5 c-2 -2 -10 -5 -18
-7 -7 -1 -20 -6 -28 -11 -10 -5 -8 -1 3 13 11 11 25 18 33 15 8 -3 13 -8 10
-10z m-113 0 c-7 -2 -19 -2 -25 0 -7 3 -2 5 12 5 14 0 19 -2 13 -5z m247 -3
c0 -5 -5 -10 -11 -10 -5 0 -7 5 -4 10 3 6 8 10 11 10 2 0 4 -4 4 -10z m16 -43
c-1 -17 -6 -23 -18 -19 -15 4 -15 5 0 22 10 10 18 19 18 19 1 1 1 -10 0 -22z
m-225 -5 c-7 -2 -18 1 -23 6 -8 8 -4 9 13 5 13 -4 18 -8 10 -11z m74 -2 c-3
-5 -10 -10 -16 -10 -5 0 -9 5 -9 10 0 6 7 10 16 10 8 0 12 -4 9 -10z m-41 -50
c-6 -6 -10 -3 -10 10 0 13 4 16 10 10 7 -7 7 -13 0 -20z m-31 -7 c-7 -2 -21
-2 -30 0 -10 3 -4 5 12 5 17 0 24 -2 18 -5z m217 3 c0 -2 -7 -7 -16 -10 -8 -3
-12 -2 -9 4 6 10 25 14 25 6z m-137 -13 c-7 -2 -19 -2 -25 0 -7 3 -2 5 12 5
14 0 19 -2 13 -5z m38 -10 c13 -16 12 -17 -3 -4 -17 13 -22 21 -14 21 2 0 10
-8 17 -17z m122 -10 c-7 -2 -19 -2 -25 0 -7 3 -2 5 12 5 14 0 19 -2 13 -5z
m-156 -14 c-9 -5 -22 -7 -29 -3 -6 4 -8 3 -4 -4 3 -6 2 -13 -3 -16 -5 -4 -13
-1 -17 5 -9 15 14 29 46 29 22 -1 23 -2 7 -11z m151 -6 c-10 -2 -26 -2 -35 0
-10 3 -2 5 17 5 19 0 27 -2 18 -5z m64 -49 c-20 -27 -35 -30 -51 -10 -9 11 -6
15 14 20 14 4 25 14 25 22 0 13 3 14 15 4 13 -10 12 -15 -3 -36z m-217 26 c-3
-5 -12 -10 -18 -10 -7 0 -6 4 3 10 19 12 23 12 15 0z m130 -10 c3 -5 -3 -10
-15 -10 -12 0 -18 5 -15 10 3 6 10 10 15 10 5 0 12 -4 15 -10z m-130 -59 c7
-12 -12 -24 -25 -16 -11 7 -4 25 10 25 5 0 11 -4 15 -9z m415 -91 c12 -30 8
-60 -8 -60 -5 0 -7 12 -5 28 l4 27 -19 -22 -20 -22 0 39 c-1 32 3 40 17 40 11
0 24 -12 31 -30z m93 23 c-7 -2 -19 -2 -25 0 -7 3 -2 5 12 5 14 0 19 -2 13 -5z
m-203 -13 c0 -5 8 -10 18 -11 9 0 12 -3 5 -5 -7 -3 -9 -13 -6 -22 4 -15 3 -15
-7 -2 -9 11 -13 12 -17 2 -2 -6 -9 -10 -14 -6 -5 3 -9 -2 -9 -10 0 -9 -4 -16
-10 -16 -5 0 -10 5 -10 11 0 13 26 40 33 33 3 -3 8 -1 12 5 4 7 -8 11 -34 11
-23 0 -41 5 -41 10 0 6 18 10 40 10 22 0 40 -4 40 -10z m-50 -30 c0 -5 -4 -10
-10 -10 -5 0 -10 5 -10 10 0 6 5 10 10 10 6 0 10 -4 10 -10z m-430 -10 c0 -5
-4 -10 -10 -10 -5 0 -10 5 -10 10 0 6 5 10 10 10 6 0 10 -4 10 -10z m620 -40
c0 -5 -4 -10 -10 -10 -5 0 -10 5 -10 10 0 6 5 10 10 10 6 0 10 -4 10 -10z
m-190 -20 c0 -5 -8 -10 -17 -10 -15 0 -16 2 -3 10 19 12 20 12 20 0z m-93 -13
c0 -7 -9 -13 -19 -13 -18 0 -18 1 -2 13 10 7 18 13 19 13 1 0 2 -6 2 -13z
m133 -18 c0 -6 -4 -7 -10 -4 -5 3 -10 11 -10 16 0 6 5 7 10 4 6 -3 10 -11 10
-16z m32 -1 c-7 -7 -12 -8 -12 -2 0 14 12 26 19 19 2 -3 -1 -11 -7 -17z m-97
-8 c3 -6 -1 -7 -9 -4 -18 7 -21 14 -7 14 6 0 13 -4 16 -10z m165 -44 c0 -16
-28 15 -34 37 -5 21 -4 21 14 -3 11 -14 20 -29 20 -34z m-80 14 c8 -5 11 -12
7 -16 -4 -4 -15 0 -24 9 -18 18 -8 23 17 7z m-187 -61 c-6 -6 -7 3 -4 23 4 28
6 29 9 9 2 -13 0 -27 -5 -32z m337 -10 c0 -19 -26 -33 -35 -19 -4 6 0 10 7 10
7 1 1 11 -15 23 -15 13 -25 26 -21 30 11 11 64 -26 64 -44z m-163 25 c-3 -3
-12 -4 -19 -1 -8 3 -5 6 6 6 11 1 17 -2 13 -5z m73 -13 c0 -6 -4 -13 -10 -16
-5 -3 -10 1 -10 9 0 9 5 16 10 16 6 0 10 -4 10 -9z m-270 -21 c0 -5 -2 -10 -4
-10 -3 0 -8 5 -11 10 -3 6 -1 10 4 10 6 0 11 -4 11 -10z m306 -37 c-11 -11
-17 4 -9 23 7 18 8 18 11 1 2 -10 1 -21 -2 -24z m234 6 c0 -6 -4 -7 -10 -4 -5
3 -10 11 -10 16 0 6 5 7 10 4 6 -3 10 -11 10 -16z m-48 -43 c-2 -4 2 -12 9
-17 8 -5 10 -9 4 -9 -19 0 -32 15 -39 45 -8 30 -7 30 12 10 11 -11 17 -24 14
-29z m-208 2 c-10 -16 -22 -7 -17 13 4 15 8 17 14 8 4 -7 5 -17 3 -21z m83 15
c5 3 9 -2 9 -12 0 -9 -8 -17 -17 -17 -9 0 -15 6 -12 12 2 7 0 15 -6 19 -7 3
-11 -2 -11 -14 0 -12 -4 -21 -10 -21 -14 0 -12 38 3 43 6 2 17 0 24 -5 7 -5
16 -7 20 -5z m73 3 c0 -3 -4 -8 -10 -11 -5 -3 -10 -1 -10 4 0 6 5 11 10 11 6
0 10 -2 10 -4z m-480 -10 c0 -3 -4 -8 -10 -11 -5 -3 -10 -1 -10 4 0 6 5 11 10
11 6 0 10 -2 10 -4z m468 -39 c5 -24 -15 -21 -21 4 -3 13 -1 19 6 16 7 -2 13
-11 15 -20z m170 -9 c-2 -17 -10 -24 -33 -25 -25 -2 -27 -1 -10 7 18 8 18 9
-5 9 -15 1 -31 -4 -38 -11 -7 -7 -12 -9 -12 -4 0 15 28 34 56 39 16 2 33 5 37
6 5 0 7 -9 5 -21z m-344 -48 c-6 -6 -10 -3 -10 10 0 13 4 16 10 10 7 -7 7 -13
0 -20z m100 -12 c-5 -7 -2 -9 7 -6 9 4 15 0 15 -11 0 -9 -8 -17 -17 -17 -10 0
-15 6 -11 14 4 12 1 12 -16 3 -34 -18 -39 -12 -7 8 36 24 38 24 29 9z m110
-38 c4 0 4 5 1 10 -8 12 5 13 23 1 10 -6 8 -10 -9 -14 -23 -6 -59 16 -59 36 0
6 8 0 19 -11 10 -12 21 -22 25 -22z m-254 4 c0 -8 -5 -12 -10 -9 -6 4 -8 11
-5 16 9 14 15 11 15 -7z m409 -23 c0 -12 -2 -12 -6 -2 -5 11 -7 11 -14 0 -6
-10 -9 -11 -9 -1 0 6 -4 12 -10 12 -5 0 -9 -5 -7 -11 1 -6 -6 -13 -16 -14 -9
-2 -15 1 -11 6 7 12 -8 11 -39 0 -14 -6 -28 -7 -31 -3 -10 9 54 27 102 28 33
1 42 -2 41 -15z m-246 2 c-7 -2 -19 -2 -25 0 -7 3 -2 5 12 5 14 0 19 -2 13 -5z
m64 -9 c-3 -3 -12 -4 -19 -1 -8 3 -5 6 6 6 11 1 17 -2 13 -5z m15 -38 c39 -30
33 -58 -14 -61 -31 -2 -36 1 -27 12 9 11 8 12 -5 7 -12 -5 -15 -2 -10 10 3 9
15 16 26 16 17 0 18 3 8 15 -11 13 -14 12 -29 -7 -12 -15 -20 -18 -25 -10 -4
7 -2 12 3 12 21 0 10 19 -16 29 -24 9 -22 10 17 5 25 -4 57 -16 72 -28z m-145
9 c-9 -9 -14 -10 -19 -1 -6 8 -11 7 -18 -4 -5 -8 -10 -10 -10 -4 0 16 8 22 35
22 18 0 21 -3 12 -13z m43 -5 c0 -5 -10 -10 -22 -9 -22 0 -22 1 -3 9 11 5 21
9 23 9 1 1 2 -3 2 -9z m190 -10 c0 -5 -5 -10 -11 -10 -5 0 -7 5 -4 10 3 6 8
10 11 10 2 0 4 -4 4 -10z m127 -22 c-3 -8 -6 -5 -6 6 -1 11 2 17 5 13 3 -3 4
-12 1 -19z m-427 2 c0 -5 -4 -10 -10 -10 -5 0 -10 5 -10 10 0 6 5 10 10 10 6
0 10 -4 10 -10z m64 -2 c-3 -4 -11 -5 -19 -1 -21 7 -19 12 4 10 11 0 18 -5 15
-9z m346 -9 c0 -11 -4 -17 -10 -14 -5 3 -10 13 -10 21 0 8 5 14 10 14 6 0 10
-9 10 -21z m-365 -17 c-3 -3 -11 0 -18 7 -9 10 -8 11 6 5 10 -3 15 -9 12 -12z
m255 8 c0 -5 -5 -10 -11 -10 -5 0 -7 5 -4 10 3 6 8 10 11 10 2 0 4 -4 4 -10z
m-210 -4 c0 -2 -7 -7 -16 -10 -8 -3 -12 -2 -9 4 6 10 25 14 25 6z m265 -54
c-3 -3 -11 0 -18 7 -9 10 -8 11 6 5 10 -3 15 -9 12 -12z m135 -2 c0 -5 -2 -10
-4 -10 -3 0 -8 5 -11 10 -3 6 -1 10 4 10 6 0 11 -4 11 -10z m-110 -65 c0 -5
-5 -3 -10 5 -5 8 -10 20 -10 25 0 6 5 3 10 -5 5 -8 10 -19 10 -25z m105 -14
c0 -16 -3 -27 -8 -24 -5 3 -6 11 -3 19 3 7 1 16 -4 19 -6 4 -10 14 -10 23 0
30 24 -6 25 -37z m-155 19 c0 -5 -4 -10 -10 -10 -5 0 -10 5 -10 10 0 6 5 10
10 10 6 0 10 -4 10 -10z m84 -16 c3 -8 2 -12 -4 -9 -6 3 -10 10 -10 16 0 14 7
11 14 -7z m-54 -14 c0 -5 -4 -10 -10 -10 -5 0 -10 5 -10 10 0 6 5 10 10 10 6
0 10 -4 10 -10z m48 -36 c-4 -3 -12 5 -18 18 -12 22 -12 22 6 6 10 -10 15 -20
12 -24z m-322 -21 c-11 -11 -17 4 -9 23 7 18 8 18 11 1 2 -10 1 -21 -2 -24z
m44 27 c0 -5 -4 -10 -10 -10 -5 0 -10 5 -10 10 0 6 5 10 10 10 6 0 10 -4 10
-10z m205 0 c3 -5 12 -7 19 -4 8 3 16 1 20 -4 3 -5 -5 -8 -17 -7 -12 1 -25 -2
-28 -8 -10 -14 -29 1 -22 18 6 17 19 19 28 5z m-199 -56 c-4 -9 -9 -15 -11
-12 -3 3 -3 13 1 22 4 9 9 15 11 12 3 -3 3 -13 -1 -22z m214 0 c0 -14 -4 -23
-9 -20 -5 3 -7 15 -4 26 7 28 13 25 13 -6z m39 -24 c1 -13 0 -13 -9 0 -5 8 -9
24 -9 35 l0 20 9 -20 c5 -11 9 -27 9 -35z m38 18 c-3 -7 -5 -2 -5 12 0 14 2
19 5 13 2 -7 2 -19 0 -25z m-247 -18 c0 -5 -5 -10 -11 -10 -5 0 -7 5 -4 10 3
6 8 10 11 10 2 0 4 -4 4 -10z m246 -15 c-3 -9 0 -15 9 -15 8 0 15 -5 15 -10 0
-7 -6 -7 -20 0 -21 11 -25 22 -13 33 11 12 15 8 9 -8z m-258 -30 c-8 -18 -14
-22 -19 -13 -4 7 -3 18 3 25 18 22 28 14 16 -12z m86 16 c3 -5 -5 -11 -18 -13
-17 -4 -23 -1 -19 9 6 15 29 18 37 4z m109 -43 c6 -4 8 -10 4 -15 -11 -10 -27
17 -26 42 l1 20 5 -20 c3 -11 10 -23 16 -27z m247 -10 c-1 -28 -2 -30 -11 -15
-6 10 -8 25 -5 33 9 24 16 16 16 -18z m-180 12 c0 -5 -5 -10 -11 -10 -5 0 -7
5 -4 10 3 6 8 10 11 10 2 0 4 -4 4 -10z m35 1 c3 -5 1 -12 -5 -16 -5 -3 -10 1
-10 9 0 18 6 21 15 7z m75 -22 c0 -7 -10 -9 -25 -7 -14 3 -25 2 -25 -2 0 -4
11 -11 25 -14 14 -4 25 -13 25 -21 0 -8 6 -12 14 -9 8 3 17 0 22 -7 5 -9 -1
-10 -26 -6 -18 4 -39 7 -46 7 -8 0 -14 7 -14 15 0 8 -4 15 -10 15 -14 0 -12
27 3 33 23 10 57 7 57 -4z m-283 -21 c-3 -8 -6 -5 -6 6 -1 11 2 17 5 13 3 -3
4 -12 1 -19z m185 -18 c-5 -33 -17 -46 -27 -30 -3 5 -1 10 4 10 6 0 11 11 11
25 0 14 4 25 8 25 5 0 7 -14 4 -30z m128 10 c0 -5 -4 -10 -10 -10 -5 0 -10 5
-10 10 0 6 5 10 10 10 6 0 10 -4 10 -10z m-250 -10 c0 -5 -4 -10 -10 -10 -5 0
-10 5 -10 10 0 6 5 10 10 10 6 0 10 -4 10 -10z m64 -19 c-2 -3 -12 3 -22 13
-16 17 -16 18 5 5 12 -7 20 -15 17 -18z m-11 -19 c15 -16 15 -19 2 -19 -8 0
-15 6 -15 13 0 7 -6 15 -12 17 -8 3 -8 6 -2 6 6 1 18 -7 27 -17z m87 -18 c0
-8 -4 -12 -10 -9 -5 3 -10 10 -10 16 0 5 5 9 10 9 6 0 10 -7 10 -16z m120 7
c0 -9 -71 -23 -79 -16 -2 3 3 5 12 5 10 0 17 5 17 10 0 6 11 10 25 10 14 0 25
-4 25 -9z m-280 -11 c0 -5 -8 -10 -17 -10 -15 0 -16 2 -3 10 19 12 20 12 20 0z
m130 -20 c0 -5 -11 -10 -25 -10 -14 0 -25 5 -25 10 0 6 11 10 25 10 14 0 25
-4 25 -10z m-260 -10 c0 -5 -4 -10 -10 -10 -5 0 -10 5 -10 10 0 6 5 10 10 10
6 0 10 -4 10 -10z m83 3 c-7 -2 -19 -2 -25 0 -7 3 -2 5 12 5 14 0 19 -2 13 -5z
m119 -45 c-8 -8 -9 -4 -5 13 4 13 8 18 11 10 2 -7 -1 -18 -6 -23z m-202 11 c0
-15 -18 -19 -23 -6 -3 8 1 14 9 14 8 0 14 -4 14 -8z m217 -51 c-3 -7 -5 -2 -5
12 0 14 2 19 5 13 2 -7 2 -19 0 -25z m53 18 c0 -3 -4 -8 -10 -11 -5 -3 -10 -1
-10 4 0 6 5 11 10 11 6 0 10 -2 10 -4z m35 -37 c11 -17 2 -18 -30 -4 l-30 13
27 1 c15 1 30 -4 33 -10z m-210 -9 c3 -5 1 -10 -4 -10 -6 0 -11 5 -11 10 0 6
2 10 4 10 3 0 8 -4 11 -10z m165 -32 c0 -4 -7 -8 -15 -8 -8 0 -15 4 -15 8 0 5
7 9 15 9 8 0 15 -4 15 -9z m72 -13 c3 -13 1 -22 -3 -19 -9 5 -13 44 -5 44 2 0
6 -11 8 -25z m-209 -2 c-7 -2 -19 -2 -25 0 -7 3 -2 5 12 5 14 0 19 -2 13 -5z
m297 -133 c-6 -11 -16 -20 -23 -19 -9 0 -9 2 1 6 6 2 12 11 12 19 0 8 5 14 10
14 7 0 7 -6 0 -20z m-50 -10 c0 -5 -4 -10 -9 -10 -6 0 -13 5 -16 10 -3 6 1 10
9 10 9 0 16 -4 16 -10z m190 -13 c0 -10 -4 -15 -10 -12 -5 3 -10 2 -10 -4 0
-6 -7 -8 -16 -4 -13 5 -13 7 -2 14 9 6 2 9 -19 9 -17 0 -33 -6 -36 -12 -4 -10
-7 -10 -18 0 -11 10 -10 12 4 12 9 0 17 4 17 8 0 5 20 8 45 8 36 -1 45 -4 45
-19z m0 -37 c0 -5 -4 -10 -10 -10 -5 0 -10 -6 -10 -14 0 -8 -7 -17 -16 -20
-23 -9 -34 -7 -34 5 0 5 4 8 9 5 5 -3 14 1 20 8 10 12 8 15 -6 19 -10 2 -9 3
5 2 12 -1 22 2 22 6 0 5 5 9 10 9 6 0 10 -4 10 -10z m-46 -67 c-5 -5 -12 -12
-16 -18 -4 -6 -8 -2 -8 8 0 9 7 17 17 17 9 0 12 -3 7 -7z m51 -3 c4 -6 1 -18
-7 -27 -11 -15 -11 -16 5 -10 11 4 20 1 23 -8 4 -8 10 -12 15 -9 5 3 8 -8 7
-24 -1 -22 -6 -28 -17 -24 -9 4 -11 7 -4 9 9 3 9 11 1 29 -9 18 -14 21 -25 13
-10 -9 -13 -8 -13 2 0 12 -2 12 -9 0 -6 -9 -8 -2 -6 20 2 19 3 35 4 37 3 6 21
1 26 -8z m35 0 c0 -5 -4 -10 -10 -10 -5 0 -10 5 -10 10 0 6 5 10 10 10 6 0 10
-4 10 -10z m-36 -87 c3 -7 0 -15 -6 -19 -6 -4 -8 -3 -5 3 4 6 0 13 -8 16 -9 4
-12 1 -8 -9 3 -7 0 -14 -6 -14 -6 0 -11 9 -11 19 0 22 36 25 44 4z m-74 -51
c0 -15 -2 -15 -10 -2 -13 20 -13 33 0 25 6 -3 10 -14 10 -23z m205 -2 c6 -4
28 -8 49 -8 44 -2 57 -9 36 -22 -9 -6 -17 -5 -22 3 -4 6 -11 8 -15 3 -4 -5 -2
-11 5 -13 14 -5 17 -53 2 -53 -5 0 -10 12 -10 26 0 26 -1 26 -25 10 -22 -14
-25 -15 -25 -1 0 8 9 15 20 15 11 0 20 5 20 10 0 6 -9 10 -20 10 -11 0 -20 3
-20 8 0 4 -24 8 -53 10 -28 2 -56 7 -61 12 -10 10 104 1 119 -10z m-138 4 c-3
-3 -12 -4 -19 -1 -8 3 -5 6 6 6 11 1 17 -2 13 -5z m83 -38 c-7 -7 -13 -7 -20
0 -6 6 -3 10 10 10 13 0 16 -4 10 -10z m-20 -31 c-7 -8 -22 -14 -34 -14 -20 1
-20 2 -1 6 11 3 24 9 30 14 15 14 19 10 5 -6z m69 -45 c1 -13 0 -13 -9 0 -5 8
-9 26 -9 40 l1 25 8 -25 c4 -14 8 -32 9 -40z m127 50 c8 0 14 -4 14 -10 0 -5
-8 -10 -19 -10 -14 0 -17 -6 -13 -25 2 -14 0 -25 -6 -25 -14 0 -21 48 -8 54 7
3 6 9 -4 16 -13 10 -12 11 3 6 10 -3 25 -6 33 -6z m-169 -22 c-3 -8 -6 -5 -6
6 -1 11 2 17 5 13 3 -3 4 -12 1 -19z m273 -23 c0 -9 -7 -23 -15 -31 -8 -9 -15
-11 -15 -5 0 5 -6 11 -12 14 -7 2 -5 3 5 2 12 -2 17 4 17 20 0 23 -1 23 -27 9
-32 -16 -63 -18 -63 -5 0 13 30 22 51 16 12 -4 21 -1 25 9 5 13 8 13 20 1 8
-7 14 -21 14 -30z m-74 -40 c-1 -5 -7 -19 -13 -30 -9 -16 -14 -17 -24 -8 -9 9
-9 16 -1 26 7 8 10 16 7 18 -2 3 4 5 14 5 10 0 18 -5 17 -11z m-154 -47 c-7
-7 -12 -8 -12 -2 0 14 12 26 19 19 2 -3 -1 -11 -7 -17z m70 -10 c-9 -9 -15 -9
-24 1 -11 10 -10 11 5 6 10 -5 17 -2 17 6 0 7 3 9 7 6 4 -4 1 -13 -5 -19z
m-292 -12 c0 -3 -4 -8 -10 -11 -5 -3 -10 -1 -10 4 0 6 5 11 10 11 6 0 10 -2
10 -4z m330 -13 c0 -10 -12 -26 -26 -37 -21 -14 -28 -16 -37 -6 -9 10 -9 11 1
5 15 -8 52 21 52 42 0 7 2 13 5 13 3 0 5 -8 5 -17z m50 -43 c0 -11 -4 -20 -10
-20 -5 0 -10 9 -10 20 0 11 5 20 10 20 6 0 10 -9 10 -20z m-171 -134 c-6 -6
-13 -6 -21 2 -9 9 -9 15 0 24 7 7 12 21 13 33 1 11 5 5 9 -15 5 -20 5 -39 -1
-44z m251 54 c0 -13 -11 -13 -30 0 -12 8 -11 10 8 10 12 0 22 -4 22 -10z
m-170 -20 c0 -11 -4 -20 -10 -20 -5 0 -10 9 -10 20 0 11 5 20 10 20 6 0 10 -9
10 -20z m120 -25 c-13 -15 -30 -12 -30 6 0 6 4 8 9 4 5 -3 13 0 16 6 4 5 9 8
12 5 3 -3 0 -12 -7 -21z m37 -7 c-3 -7 -5 -2 -5 12 0 14 2 19 5 13 2 -7 2 -19
0 -25z m-73 -16 c2 -4 -4 -8 -14 -8 -10 0 -16 4 -14 8 3 4 9 8 14 8 5 0 11 -4
14 -8z m53 -14 c-3 -8 -6 -5 -6 6 -1 11 2 17 5 13 3 -3 4 -12 1 -19z m113 2
c0 -5 -9 -10 -20 -10 -11 0 -20 5 -20 10 0 6 9 10 20 10 11 0 20 -4 20 -10z
m-40 -31 c0 -5 -4 -9 -10 -9 -5 0 -10 7 -10 16 0 8 5 12 10 9 6 -3 10 -10 10
-16z m-200 1 c8 -5 12 -11 10 -14 -3 -2 -14 2 -24 10 -22 15 -10 19 14 4z m70
-10 c0 -11 -4 -20 -10 -20 -5 0 -10 9 -10 20 0 11 5 20 10 20 6 0 10 -9 10
-20z m178 -29 c2 -13 -2 -28 -8 -35 -9 -8 -10 -4 -5 17 5 17 3 27 -4 27 -6 0
-11 5 -11 11 0 20 25 2 28 -20z m-216 12 c-22 -9 -2 -23 24 -17 14 4 24 2 24
-5 0 -12 -23 -14 -58 -5 -18 5 -20 9 -11 20 6 8 17 14 23 13 7 0 6 -2 -2 -6z
m162 -16 c-3 -8 -11 -14 -19 -14 -18 0 -20 13 -2 20 21 9 27 7 21 -6z m-34
-79 c0 -5 -7 -3 -15 6 -8 8 -15 18 -15 22 0 3 7 1 15 -6 8 -7 15 -17 15 -22z
m70 -8 c0 -10 -6 -20 -12 -23 -9 -3 -13 5 -13 23 0 18 4 26 13 23 6 -3 12 -13
12 -23z m30 10 c0 -5 -4 -10 -10 -10 -5 0 -10 5 -10 10 0 6 5 10 10 10 6 0 10
-4 10 -10z m21 -46 c-9 -28 -9 -29 -10 -3 -1 14 2 29 6 32 11 12 13 2 4 -29z
m88 -36 c-2 -28 -2 -29 -6 -8 -3 14 -10 28 -17 32 -7 5 -5 8 7 8 13 0 17 -8
16 -32z m58 18 c-3 -8 -1 -17 6 -19 8 -3 9 -8 2 -15 -16 -17 -35 1 -28 26 3
12 10 22 15 22 6 0 8 -6 5 -14z m-77 -16 c0 -5 -4 -10 -10 -10 -5 0 -10 5 -10
10 0 6 5 10 10 10 6 0 10 -4 10 -10z m-37 -17 c-7 -2 -19 -2 -25 0 -7 3 -2 5
12 5 14 0 19 -2 13 -5z m-83 -7 c0 -3 -4 -8 -10 -11 -5 -3 -10 -1 -10 4 0 6 5
11 10 11 6 0 10 -2 10 -4z m125 -26 c4 -11 10 -18 14 -16 4 3 5 -12 2 -32 -3
-22 -6 -29 -8 -17 -10 54 -14 65 -28 65 -7 0 -17 5 -20 10 -3 6 3 10 14 10 11
0 22 -9 26 -20z m45 -2 c0 -19 -2 -20 -10 -8 -13 19 -13 30 0 30 6 0 10 -10
10 -22z m70 2 c0 -11 5 -20 12 -20 6 0 9 -2 6 -5 -3 -3 -13 -3 -22 1 -17 7
-23 44 -6 44 6 0 10 -9 10 -20z m-40 -62 c0 -16 -3 -19 -11 -11 -6 6 -8 16 -5
22 11 17 16 13 16 -11z m90 2 c0 -5 9 -10 19 -10 25 0 37 -18 22 -33 -9 -9
-11 -8 -6 4 4 12 -1 18 -19 21 -17 4 -26 0 -29 -11 -3 -9 -5 -4 -6 12 0 15 4
27 9 27 6 0 10 -4 10 -10z m100 -4 c0 -3 -4 -8 -10 -11 -5 -3 -10 -1 -10 4 0
6 5 11 10 11 6 0 10 -2 10 -4z m128 -46 c7 0 12 -4 12 -10 0 -5 -3 -10 -8 -10
-14 0 -52 31 -52 42 0 6 8 4 18 -5 10 -10 24 -17 30 -17z m-371 4 c-3 -3 -12
-4 -19 -1 -8 3 -5 6 6 6 11 1 17 -2 13 -5z m53 -4 c0 -5 -4 -10 -10 -10 -5 0
-10 5 -10 10 0 6 5 10 10 10 6 0 10 -4 10 -10z m37 -22 c-3 -7 -5 -2 -5 12 0
14 2 19 5 13 2 -7 2 -19 0 -25z m206 15 c-7 -2 -19 -2 -25 0 -7 3 -2 5 12 5
14 0 19 -2 13 -5z m47 -84 c0 -14 8 -19 28 -20 l27 -1 -30 -8 c-16 -4 -39 -11
-50 -14 -19 -7 -19 -7 0 6 22 14 22 41 1 68 -10 13 -9 13 7 1 9 -7 17 -22 17
-32z m-148 19 c7 7 19 12 28 11 9 0 6 -4 -8 -10 -13 -5 -21 -13 -17 -18 3 -5
0 -13 -7 -17 -7 -4 -10 -4 -6 1 4 4 -1 15 -10 24 -10 9 -12 12 -5 7 9 -6 18
-5 25 2z m-62 -8 c0 -5 -4 -10 -10 -10 -5 0 -10 5 -10 10 0 6 5 10 10 10 6 0
10 -4 10 -10z m140 -5 c0 -8 -4 -15 -10 -15 -5 0 -10 7 -10 15 0 8 5 15 10 15
6 0 10 -7 10 -15z m-61 -79 c-9 -8 -10 -7 -5 7 3 10 7 28 7 40 2 16 3 14 6 -7
3 -16 -1 -34 -8 -40z m-229 34 c0 -5 -2 -10 -4 -10 -3 0 -8 5 -11 10 -3 6 -1
10 4 10 6 0 11 -4 11 -10z m130 -51 c-12 -9 -11 -10 8 -6 12 3 22 1 22 -4 0
-5 -11 -9 -25 -9 -16 0 -25 6 -25 15 0 8 8 15 18 15 15 0 15 -2 2 -11z m-10
-58 c0 -6 -4 -13 -10 -16 -5 -3 -10 1 -10 9 0 9 5 16 10 16 6 0 10 -4 10 -9z
m300 -13 c-1 -7 -8 -24 -16 -38 -8 -14 -13 -17 -10 -7 3 10 6 27 6 38 0 10 5
19 10 19 6 0 10 -6 10 -12z m-30 -14 c0 -8 -4 -12 -10 -9 -5 3 -10 10 -10 16
0 5 5 9 10 9 6 0 10 -7 10 -16z m-20 -49 c0 -8 -4 -15 -10 -15 -5 0 -7 7 -4
15 4 8 8 15 10 15 2 0 4 -7 4 -15z"/>
<path d="M976 10093 c-6 -14 -5 -15 5 -6 7 7 10 15 7 18 -3 3 -9 -2 -12 -12z"/>
<path d="M2010 8140 c0 -5 5 -10 10 -10 6 0 10 5 10 10 0 6 -4 10 -10 10 -5 0
-10 -4 -10 -10z"/>
<path d="M2285 7850 c-3 -6 1 -7 9 -4 18 7 21 14 7 14 -6 0 -13 -4 -16 -10z"/>
<path d="M2130 7620 c0 -5 5 -10 10 -10 6 0 10 5 10 10 0 6 -4 10 -10 10 -5 0
-10 -4 -10 -10z"/>
<path d="M1060 10226 c0 -8 4 -17 9 -20 5 -4 7 3 4 14 -6 23 -13 26 -13 6z"/>
<path d="M1260 10231 c0 -5 -2 -16 -5 -24 -4 -8 0 -14 10 -14 9 0 15 9 15 24
0 13 -4 23 -10 23 -5 0 -10 -4 -10 -9z"/>
<path d="M1360 10211 c0 -6 5 -13 10 -16 6 -3 10 1 10 9 0 9 -4 16 -10 16 -5
0 -10 -4 -10 -9z"/>
<path d="M1412 10178 c17 -10 48 -10 48 0 0 5 -14 9 -30 9 -20 0 -26 -3 -18
-9z"/>
<path d="M1368 10093 c6 -2 18 -2 25 0 6 3 1 5 -13 5 -14 0 -19 -2 -12 -5z"/>
<path d="M1230 10080 c0 -13 20 -13 40 0 12 8 9 10 -12 10 -16 0 -28 -4 -28
-10z"/>
<path d="M1360 10021 c0 -5 -10 -12 -22 -14 l-23 -4 23 -2 c13 0 20 -5 17 -11
-3 -5 -2 -10 3 -10 10 0 22 23 22 41 0 5 -4 9 -10 9 -5 0 -10 -4 -10 -9z"/>
<path d="M1290 9980 c0 -11 5 -20 10 -20 6 0 10 9 10 20 0 11 -4 20 -10 20 -5
0 -10 -9 -10 -20z"/>
<path d="M1460 9980 c0 -5 5 -10 10 -10 6 0 10 5 10 10 0 6 -4 10 -10 10 -5 0
-10 -4 -10 -10z"/>
<path d="M1379 9958 c-5 -18 -6 -38 -1 -34 7 8 12 36 6 36 -2 0 -4 -1 -5 -2z"/>
<path d="M1160 9940 c0 -5 9 -10 20 -10 11 0 20 5 20 10 0 6 -9 10 -20 10 -11
0 -20 -4 -20 -10z"/>
<path d="M1320 9940 c0 -5 9 -10 20 -10 11 0 20 5 20 10 0 6 -9 10 -20 10 -11
0 -20 -4 -20 -10z"/>
<path d="M1329 9898 c-5 -22 -2 -27 18 -31 12 -2 23 0 23 4 0 5 -6 9 -14 9 -8
0 -16 10 -18 23 -3 20 -4 20 -9 -5z"/>
<path d="M1215 9881 c-3 -5 -1 -12 5 -16 5 -3 10 1 10 9 0 18 -6 21 -15 7z"/>
<path d="M1393 9861 c1 -16 5 -17 24 -8 17 8 20 13 11 19 -22 13 -37 9 -35
-11z"/>
<path d="M1296 9842 c-6 -9 61 -9 70 1 4 4 -9 7 -29 7 -20 0 -38 -3 -41 -8z"/>
<path d="M1307 9823 c-4 -3 -7 -11 -7 -17 0 -6 5 -5 12 2 6 6 9 14 7 17 -3 3
-9 2 -12 -2z"/>
<path d="M1360 9820 c0 -5 5 -10 10 -10 6 0 10 5 10 10 0 6 -4 10 -10 10 -5 0
-10 -4 -10 -10z"/>
<path d="M1261 9794 c0 -11 3 -14 6 -6 3 7 2 16 -1 19 -3 4 -6 -2 -5 -13z"/>
<path d="M1338 9793 c6 -2 18 -2 25 0 6 3 1 5 -13 5 -14 0 -19 -2 -12 -5z"/>
<path d="M1394 9779 c3 -15 46 -23 46 -8 0 5 -4 7 -10 4 -5 -3 -10 0 -10 7 0
10 -2 10 -9 -1 -6 -9 -10 -10 -14 -2 -4 8 -5 8 -3 0z"/>
<path d="M1236 9750 c1 -44 14 -50 14 -7 0 21 -3 37 -7 37 -5 0 -8 -14 -7 -30z"/>
<path d="M1338 9763 c6 -2 18 -2 25 0 6 3 1 5 -13 5 -14 0 -19 -2 -12 -5z"/>
<path d="M1311 9751 c-1 -8 -8 -11 -20 -8 -13 3 -21 -1 -24 -14 -4 -16 -1 -18
21 -13 34 9 35 9 29 31 -3 10 -5 12 -6 4z"/>
<path d="M1451 9744 c0 -11 3 -14 6 -6 3 7 2 16 -1 19 -3 4 -6 -2 -5 -13z"/>
<path d="M1496 9748 c3 -5 10 -6 15 -3 13 9 11 12 -6 12 -8 0 -12 -4 -9 -9z"/>
<path d="M1445 9710 c3 -5 8 -10 11 -10 2 0 4 5 4 10 0 6 -5 10 -11 10 -5 0
-7 -4 -4 -10z"/>
<path d="M1410 9690 c0 -15 35 -30 69 -30 33 0 42 14 15 24 -8 3 -12 2 -9 -4
10 -16 -32 -12 -49 5 -17 17 -26 19 -26 5z"/>
<path d="M1561 9659 c-1 -15 28 -82 30 -69 4 32 5 81 2 68 -2 -10 -8 -18 -13
-18 -5 0 -11 8 -13 18 -4 14 -5 15 -6 1z"/>
<path d="M1711 9604 c0 -11 3 -14 6 -6 3 7 2 16 -1 19 -3 4 -6 -2 -5 -13z"/>
<path d="M1422 9585 c0 -26 16 -76 17 -53 1 9 4 24 8 34 4 11 3 15 -5 11 -6
-4 -13 1 -15 10 -4 15 -5 15 -5 -2z"/>
<path d="M1500 9565 c-10 -12 -10 -15 4 -15 9 0 16 7 16 15 0 8 -2 15 -4 15
-2 0 -9 -7 -16 -15z"/>
<path d="M1590 9570 c0 -5 5 -10 11 -10 5 0 7 5 4 10 -3 6 -8 10 -11 10 -2 0
-4 -4 -4 -10z"/>
<path d="M1813 9563 c9 -2 23 -2 30 0 6 3 -1 5 -18 5 -16 0 -22 -2 -12 -5z"/>
<path d="M1725 9549 c-3 -4 2 -6 10 -5 21 3 28 13 10 13 -9 0 -18 -4 -20 -8z"/>
<path d="M1460 9500 c0 -11 7 -20 15 -20 8 0 15 9 15 20 0 11 -7 20 -15 20 -8
0 -15 -9 -15 -20z"/>
<path d="M1560 9499 c0 -11 5 -17 10 -14 6 3 10 13 10 21 0 8 -4 14 -10 14 -5
0 -10 -9 -10 -21z"/>
<path d="M1885 9480 c3 -5 11 -10 16 -10 6 0 7 5 4 10 -3 6 -11 10 -16 10 -6
0 -7 -4 -4 -10z"/>
<path d="M1577 9465 c-15 -11 -16 -17 -8 -34 14 -25 14 -34 1 -26 -5 3 -10 1
-10 -5 0 -7 6 -10 13 -7 7 2 11 16 9 32 -2 15 3 32 10 36 7 4 10 10 8 13 -3 2
-13 -2 -23 -9z"/>
<path d="M1668 9443 c7 -3 16 -2 19 1 4 3 -2 6 -13 5 -11 0 -14 -3 -6 -6z"/>
<path d="M1975 9390 c3 -5 11 -10 16 -10 6 0 7 5 4 10 -3 6 -11 10 -16 10 -6
0 -7 -4 -4 -10z"/>
<path d="M2030 9191 c0 -6 4 -13 10 -16 6 -3 7 1 4 9 -7 18 -14 21 -14 7z"/>
<path d="M1855 9120 c-3 -5 1 -10 10 -10 9 0 13 5 10 10 -3 6 -8 10 -10 10 -2
0 -7 -4 -10 -10z"/>
<path d="M1858 9083 c7 -3 16 -2 19 1 4 3 -2 6 -13 5 -11 0 -14 -3 -6 -6z"/>
<path d="M1778 9055 c-3 -14 -1 -25 3 -25 5 0 10 8 10 18 2 22 20 -55 21 -85
0 -13 6 -23 13 -23 7 0 16 -13 20 -30 8 -35 20 -39 28 -10 3 12 14 20 29 21
15 1 8 5 -20 12 -46 13 -57 30 -22 35 12 2 20 11 20 22 0 13 5 17 14 14 18 -7
31 15 18 28 -8 8 -15 8 -26 -1 -11 -9 -15 -9 -19 1 -2 8 -8 9 -13 4 -5 -5 -4
-11 4 -13 21 -8 13 -20 -13 -20 -18 0 -25 5 -25 19 0 23 -17 58 -29 58 -5 0
-11 -11 -13 -25z m132 -35 c0 -5 -4 -10 -10 -10 -5 0 -10 5 -10 10 0 6 5 10
10 10 6 0 10 -4 10 -10z"/>
<path d="M2000 8979 c0 -5 5 -7 10 -4 6 3 10 8 10 11 0 2 -4 4 -10 4 -5 0 -10
-5 -10 -11z"/>
<path d="M1900 8884 l-25 -15 28 6 c21 4 27 2 27 -12 1 -16 2 -16 15 1 12 16
12 22 2 28 -16 10 -18 10 -47 -8z"/>
<path d="M1987 8861 c-9 -16 -17 -37 -16 -48 0 -14 2 -13 10 6 5 13 18 32 29
41 11 9 17 20 13 24 -11 11 -18 7 -36 -23z"/>
<path d="M1840 8860 c0 -5 5 -10 10 -10 6 0 10 5 10 10 0 6 -4 10 -10 10 -5 0
-10 -4 -10 -10z"/>
<path d="M2000 8811 c0 -6 4 -13 10 -16 6 -3 7 1 4 9 -7 18 -14 21 -14 7z"/>
<path d="M2080 8810 c0 -5 5 -10 11 -10 5 0 7 5 4 10 -3 6 -8 10 -11 10 -2 0
-4 -4 -4 -10z"/>
<path d="M2120 8770 c0 -5 5 -10 11 -10 5 0 7 5 4 10 -3 6 -8 10 -11 10 -2 0
-4 -4 -4 -10z"/>
<path d="M2116 8724 c-9 -23 -2 -28 13 -10 7 8 8 17 3 20 -6 3 -13 -1 -16 -10z"/>
<path d="M2063 8705 c7 -13 14 -20 15 -14 5 14 -6 39 -17 39 -5 0 -4 -11 2
-25z"/>
<path d="M2092 8700 c0 -14 2 -19 5 -12 2 6 2 18 0 25 -3 6 -5 1 -5 -13z"/>
<path d="M1948 8693 c7 -3 16 -2 19 1 4 3 -2 6 -13 5 -11 0 -14 -3 -6 -6z"/>
<path d="M2208 8673 c6 -2 18 -2 25 0 6 3 1 5 -13 5 -14 0 -19 -2 -12 -5z"/>
<path d="M1983 8643 c-15 -5 -18 -43 -4 -43 5 0 11 11 13 25 3 14 5 25 4 24 0
0 -7 -3 -13 -6z"/>
<path d="M2128 8603 c6 -2 18 -2 25 0 6 3 1 5 -13 5 -14 0 -19 -2 -12 -5z"/>
<path d="M2043 8560 c0 -25 2 -35 4 -22 2 12 2 32 0 45 -2 12 -4 2 -4 -23z"/>
<path d="M2072 8580 c0 -14 2 -19 5 -12 2 6 2 18 0 25 -3 6 -5 1 -5 -13z"/>
<path d="M2448 8593 c6 -2 18 -2 25 0 6 3 1 5 -13 5 -14 0 -19 -2 -12 -5z"/>
<path d="M2011 8574 c0 -11 3 -14 6 -6 3 7 2 16 -1 19 -3 4 -6 -2 -5 -13z"/>
<path d="M2110 8525 c-11 -13 -10 -14 4 -9 9 3 16 10 16 15 0 13 -6 11 -20 -6z"/>
<path d="M1940 8500 c0 -5 5 -10 10 -10 6 0 10 5 10 10 0 6 -4 10 -10 10 -5 0
-10 -4 -10 -10z"/>
<path d="M1998 8462 c3 -14 -1 -28 -9 -34 -10 -7 -11 -11 -2 -14 7 -3 9 -13 6
-22 -4 -15 -3 -15 6 -2 6 8 11 24 12 35 1 11 5 4 9 -15 l7 -35 2 37 c0 20 4
43 7 51 3 10 -3 16 -19 19 -20 4 -23 1 -19 -20z"/>
<path d="M1950 8450 c0 -5 5 -10 11 -10 5 0 7 5 4 10 -3 6 -8 10 -11 10 -2 0
-4 -4 -4 -10z"/>
<path d="M2528 8433 c6 -2 18 -2 25 0 6 3 1 5 -13 5 -14 0 -19 -2 -12 -5z"/>
<path d="M2060 8399 c0 -5 5 -7 10 -4 6 3 10 8 10 11 0 2 -4 4 -10 4 -5 0 -10
-5 -10 -11z"/>
<path d="M2146 8336 c-4 -21 -5 -41 -2 -44 3 -3 6 3 6 13 0 14 3 15 15 5 8 -6
20 -10 27 -7 8 4 7 6 -4 6 -10 1 -17 4 -16 9 0 4 -3 18 -9 32 -10 23 -10 23
-17 -14z"/>
<path d="M2465 8330 c3 -5 8 -10 11 -10 2 0 4 5 4 10 0 6 -5 10 -11 10 -5 0
-7 -4 -4 -10z"/>
<path d="M2284 8299 c0 -10 4 -15 9 -12 4 3 16 -2 26 -11 11 -10 25 -14 36
-10 15 6 17 4 11 -12 -5 -13 -4 -16 3 -8 13 12 -6 61 -26 68 -10 4 -10 1 -1
-14 7 -10 9 -22 5 -26 -9 -10 -39 17 -34 30 3 7 -3 12 -12 12 -9 0 -17 -8 -17
-17z"/>
<path d="M2114 8286 c-8 -9 -8 -17 1 -30 16 -21 28 -6 18 22 -6 15 -11 17 -19
8z"/>
<path d="M2160 8265 c0 -14 2 -25 4 -25 2 0 6 11 8 25 3 14 1 25 -3 25 -5 0
-9 -11 -9 -25z"/>
<path d="M2208 8273 c6 -2 18 -2 25 0 6 3 1 5 -13 5 -14 0 -19 -2 -12 -5z"/>
<path d="M2080 8252 c0 -7 5 -12 10 -12 6 0 10 -8 9 -17 0 -11 -3 -13 -6 -5
-5 14 -43 17 -43 3 0 -11 30 -36 30 -25 0 5 4 3 8 -4 6 -9 12 -6 20 12 9 20 7
27 -9 42 -11 10 -19 12 -19 6z"/>
<path d="M2218 8240 c12 -5 22 -14 22 -20 0 -6 -4 -8 -10 -5 -5 3 -10 -1 -10
-10 0 -28 25 -10 26 18 1 23 -3 27 -25 26 -26 0 -26 0 -3 -9z"/>
<path d="M2317 8234 c6 -15 23 -19 23 -5 0 5 -7 11 -14 14 -10 4 -13 1 -9 -9z"/>
<path d="M2290 8190 c0 -5 5 -10 10 -10 6 0 10 5 10 10 0 6 -4 10 -10 10 -5 0
-10 -4 -10 -10z"/>
<path d="M2350 8185 c0 -14 -12 -19 -32 -16 -5 0 -8 -4 -8 -10 0 -6 7 -9 15
-5 9 3 15 0 15 -8 0 -8 6 -16 14 -19 14 -6 31 47 20 64 -8 14 -24 10 -24 -6z"/>
<path d="M2470 8159 c-13 -9 -12 -10 3 -5 12 4 17 0 18 -17 1 -18 2 -19 6 -3
6 24 -8 38 -27 25z"/>
<path d="M2390 8149 c0 -5 5 -7 12 -3 8 5 9 2 5 -10 -4 -10 -3 -15 4 -11 5 4
16 2 23 -4 9 -8 13 -7 13 4 0 8 -5 11 -10 8 -6 -4 -8 0 -5 8 4 10 -2 15 -18
17 -13 1 -24 -3 -24 -9z"/>
<path d="M2395 8040 c-8 -44 -9 -44 -16 -15 l-7 30 -1 -28 c-1 -24 -4 -27 -23
-22 -20 5 -21 5 -5 -5 9 -6 15 -15 12 -19 -2 -5 5 -8 16 -7 11 0 23 6 27 13 4
6 21 13 37 16 l30 4 -32 2 c-30 1 -45 15 -25 23 5 2 5 14 2 28 -6 22 -8 19
-15 -20z"/>
<path d="M2432 8060 c0 -14 2 -19 5 -12 2 6 2 18 0 25 -3 6 -5 1 -5 -13z"/>
<path d="M4919 8069 c-217 -14 -465 -78 -689 -178 -230 -103 -518 -326 -679
-526 -176 -219 -366 -605 -412 -836 -58 -296 -61 -518 -13 -759 19 -94 87
-296 127 -375 113 -227 226 -393 367 -539 286 -296 720 -527 1121 -596 163
-28 377 -37 504 -21 274 35 571 136 812 277 530 310 895 874 954 1474 31 309
-34 649 -181 945 -188 382 -446 671 -770 865 -184 110 -362 180 -596 235 -92
22 -314 47 -388 44 -17 -1 -88 -6 -157 -10z m481 -178 c350 -69 672 -236 924
-480 87 -84 236 -265 236 -286 0 -7 -10 -26 -23 -42 -13 -15 -57 -77 -98 -138
-115 -169 -133 -194 -141 -192 -4 1 -70 62 -147 134 -77 73 -151 137 -165 143
-25 9 -36 1 -169 -122 -78 -72 -171 -159 -206 -192 l-63 -60 -27 30 c-152 176
-242 284 -301 363 l-70 93 62 70 c114 126 120 135 109 156 -6 11 -27 34 -47
52 l-37 32 -74 -74 c-41 -40 -82 -85 -90 -100 l-16 -26 -57 71 c-86 107 -113
131 -138 118 -30 -16 -62 -61 -62 -86 0 -24 68 -120 119 -169 17 -17 31 -33
31 -37 0 -5 -137 -193 -165 -227 -3 -4 -238 221 -371 356 -123 125 -138 131
-196 85 -19 -16 -106 -100 -194 -189 -87 -88 -191 -187 -229 -220 l-70 -61
-27 41 c-14 23 -54 74 -88 114 l-61 73 48 67 c175 245 417 439 713 569 147 65
277 106 415 132 157 29 160 29 375 26 147 -2 221 -8 300 -24z m-1146 -750 c9
-16 27 -78 41 -137 16 -68 39 -133 61 -174 47 -84 57 -167 26 -198 -13 -13
-28 -19 -41 -15 -20 5 -301 297 -301 313 0 4 18 12 39 19 37 11 44 19 96 116
31 58 58 105 60 105 3 0 11 -13 19 -29z m891 -239 c200 -258 279 -347 588
-660 l230 -232 10 -281 c5 -154 7 -282 4 -285 -2 -3 -44 -4 -92 -2 l-87 3 22
28 c37 47 28 59 -111 137 -35 19 -105 76 -158 125 -152 145 -247 285 -325 478
-45 112 -106 325 -106 371 0 54 -63 79 -100 40 -10 -11 -28 -62 -40 -119 -28
-124 -90 -305 -134 -394 -44 -87 -140 -229 -210 -314 -65 -78 -188 -173 -273
-212 -112 -50 -118 -58 -79 -110 15 -20 26 -37 25 -38 -2 -1 -45 -1 -96 1
l-91 3 4 72 c2 40 5 165 7 279 l2 207 195 198 c295 300 369 378 458 493 45 58
122 155 170 217 48 62 89 112 92 112 3 0 46 -53 95 -117z m-1532 -118 c37 -49
90 -117 118 -152 27 -34 49 -65 49 -67 0 -3 -31 -5 -70 -5 -42 0 -70 -4 -70
-10 0 -29 37 -74 110 -134 85 -70 116 -108 105 -126 -5 -8 -44 -10 -123 -7
l-116 5 -4 158 c-4 174 -11 194 -63 194 -34 0 -94 -64 -83 -89 4 -9 9 -152 11
-318 l3 -303 -108 0 c-76 0 -114 4 -127 14 -18 13 -17 16 20 67 21 30 58 77
82 106 46 55 93 130 93 150 0 9 -23 11 -95 6 -70 -4 -95 -3 -95 6 0 7 23 40
52 74 28 34 74 96 101 137 l49 75 -66 3 c-36 2 -66 7 -66 13 0 5 29 51 65 102
36 51 82 116 103 144 20 29 42 51 47 50 6 -2 41 -44 78 -93z m3054 -19 c35
-49 81 -110 103 -136 22 -26 40 -52 40 -58 0 -7 -24 -11 -59 -11 -125 0 -123
-22 14 -171 57 -63 104 -117 105 -120 0 -3 -54 -5 -120 -5 l-120 1 -1 155 c-1
193 -4 204 -50 208 -23 2 -43 -3 -59 -16 -23 -18 -23 -21 -22 -208 1 -104 4
-256 8 -337 l7 -148 -113 3 c-88 2 -115 6 -122 18 -8 12 9 41 70 121 44 59 85
123 92 143 6 20 16 36 21 36 5 0 9 5 9 11 0 9 -30 10 -110 6 -84 -4 -109 -3
-103 6 4 7 41 55 82 107 42 52 83 110 93 130 17 33 17 35 1 42 -10 3 -42 7
-70 7 -29 1 -53 4 -53 9 0 4 23 30 51 57 28 28 90 94 137 148 48 53 91 96 97
94 5 -2 38 -43 72 -92z m-651 -12 c8 -18 14 -44 14 -59 0 -15 13 -65 30 -113
16 -47 32 -112 36 -144 6 -49 5 -57 -10 -57 -15 0 -256 239 -265 263 -2 6 5 8
16 5 33 -9 51 9 94 95 39 77 42 80 56 62 8 -11 21 -34 29 -52z m-2351 -550
c21 -31 69 -97 108 -146 38 -50 70 -97 71 -106 1 -14 -17 -16 -121 -19 l-122
-3 5 143 c5 135 10 188 18 188 2 0 20 -26 41 -57z m2995 27 c6 -10 55 -79 110
-152 55 -73 100 -136 100 -140 0 -11 -224 -14 -232 -3 -12 15 -10 315 2 315 5
0 14 -9 20 -20z m-1605 -37 c-4 -10 -15 -64 -26 -121 -20 -101 -70 -260 -126
-397 -32 -78 -107 -210 -126 -222 -6 -4 -78 -8 -159 -8 -190 0 -190 -3 -33
113 161 118 358 382 445 598 12 30 25 54 27 54 3 0 2 -8 -2 -17z m221 -370
c71 -93 208 -229 302 -299 39 -30 72 -59 72 -65 0 -5 -60 -9 -144 -9 l-144 0
-31 39 c-85 107 -184 345 -231 555 -17 72 -30 133 -30 136 0 3 34 -60 76 -140
41 -80 100 -178 130 -217z m-1260 92 c3 -14 1 -39 -6 -56 -14 -32 -140 -178
-287 -333 -79 -82 -87 -88 -116 -82 -46 9 -77 33 -93 71 -20 49 -17 98 7 129
26 33 54 33 74 1 8 -14 22 -36 30 -50 20 -33 30 -27 127 90 107 128 228 255
244 255 7 0 16 -11 20 -25z m2292 -180 l170 -175 24 42 c28 52 67 63 92 26 32
-45 12 -143 -33 -168 -11 -5 -40 -10 -65 -10 -43 0 -47 3 -139 98 -261 270
-323 362 -243 362 18 0 66 -43 194 -175z m330 -459 c7 -8 -143 -203 -197 -256
-87 -86 -165 -156 -156 -141 5 10 4 12 -3 7 -7 -4 -12 -13 -12 -19 0 -7 -17
-25 -38 -41 l-37 -29 25 29 c14 16 28 31 31 34 3 3 5 13 3 23 -1 9 1 17 5 17
4 0 5 16 3 35 -3 27 -10 37 -29 41 -33 9 -42 -3 -12 -16 25 -11 20 -10 -56 9
-22 6 -53 13 -68 16 -17 3 -35 18 -47 38 -36 60 -27 58 -213 51 l-172 -6 -27
-31 c-42 -47 -36 -87 15 -106 32 -12 199 -17 216 -7 7 5 10 2 9 -5 -3 -13 -23
-29 -58 -46 -8 -4 -21 -13 -28 -20 -7 -7 -23 -13 -34 -13 -11 0 -22 -8 -25
-19 -5 -21 -27 -26 -168 -40 -44 -4 -104 -13 -133 -20 -29 -7 -56 -11 -58 -8
-3 3 -22 -3 -42 -13 l-37 -18 -21 26 -21 26 -224 -3 c-202 -2 -226 -4 -244
-21 -18 -17 -31 -18 -135 -11 -63 4 -131 4 -150 0 -19 -5 -73 -9 -120 -9 -86
0 -97 10 -30 28 25 7 29 10 13 11 -19 1 -23 7 -23 30 0 21 -6 32 -20 36 -11 3
-20 13 -20 21 0 8 -6 14 -12 15 -10 0 -10 2 0 6 6 2 12 13 12 23 0 15 -9 20
-42 23 -24 2 32 4 124 5 l166 2 26 31 c14 17 26 35 26 40 0 23 -32 69 -48 70
-56 3 -427 -3 -437 -8 -7 -2 -20 -19 -29 -36 -17 -36 -6 -64 32 -82 30 -13 28
-28 -3 -23 -13 3 -22 1 -19 -3 3 -5 -17 -9 -44 -9 -41 0 -55 5 -81 29 -34 32
-41 61 -13 61 15 1 15 2 -3 12 -20 12 -275 25 -275 15 0 -3 22 -18 50 -34 35
-19 50 -34 50 -48 0 -12 6 -27 13 -35 6 -7 -7 1 -30 19 -23 17 -63 55 -89 84
-61 69 -194 246 -194 261 0 8 414 10 1577 8 867 -1 1579 -4 1581 -6z m-602
-333 c-15 -13 -35 -23 -44 -22 -13 0 -12 2 5 9 11 5 29 20 40 33 10 14 20 20
22 14 2 -6 -8 -21 -23 -34z m214 -13 c0 -5 -2 -10 -4 -10 -3 0 -8 5 -11 10 -3
6 -1 10 4 10 6 0 11 -4 11 -10z m-292 -7 c-10 -2 -28 -2 -40 0 -13 2 -5 4 17
4 22 1 32 -1 23 -4z"/>
<path d="M5643 7432 c-46 -36 -56 -115 -20 -158 54 -63 156 -2 157 94 0 68
-83 107 -137 64z"/>
<path d="M4914 5070 c-50 -20 -69 -83 -35 -114 17 -16 41 -17 221 -14 l202 3
24 28 c29 34 30 61 4 87 -19 19 -33 20 -207 19 -104 0 -198 -4 -209 -9z"/>
<path d="M6284 4908 c-3 -4 2 -8 10 -8 8 0 17 4 20 8 3 5 -2 9 -10 9 -8 0 -17
-4 -20 -9z"/>
<path d="M2470 8011 c0 -5 7 -12 16 -15 9 -3 14 -12 11 -19 -3 -8 0 -14 6 -14
7 0 21 -4 32 -9 12 -4 4 8 -19 29 -41 39 -46 42 -46 28z"/>
<path d="M2686 7977 c3 -10 9 -15 12 -12 3 3 0 11 -7 18 -10 9 -11 8 -5 -6z"/>
<path d="M2715 7930 c-3 -5 -1 -10 4 -10 6 0 11 5 11 10 0 6 -2 10 -4 10 -3 0
-8 -4 -11 -10z"/>
<path d="M2690 7896 c7 -7 13 -7 20 0 6 6 3 10 -10 10 -13 0 -16 -4 -10 -10z"/>
<path d="M2480 7880 c0 -5 5 -10 10 -10 6 0 10 5 10 10 0 6 -4 10 -10 10 -5 0
-10 -4 -10 -10z"/>
<path d="M2670 7869 c0 -5 4 -8 9 -5 12 8 33 -19 24 -30 -4 -5 -1 -3 7 5 11
10 12 15 2 18 -6 3 -10 9 -6 14 3 5 -4 9 -15 9 -12 0 -21 -5 -21 -11z"/>
<path d="M2479 7848 c-7 -23 -5 -38 4 -38 7 0 5 -5 -3 -10 -10 -6 -11 -10 -2
-10 6 0 12 -5 12 -11 0 -5 -5 -7 -12 -3 -7 4 -8 3 -4 -4 4 -6 13 -9 21 -5 16
6 21 23 6 23 -5 0 -8 14 -7 30 1 17 -1 30 -6 30 -4 0 -8 -1 -9 -2z"/>
<path d="M2680 7810 c0 -5 5 -10 11 -10 5 0 7 5 4 10 -3 6 -8 10 -11 10 -2 0
-4 -4 -4 -10z"/>
<path d="M2515 7780 c2 -31 15 -37 15 -7 0 15 -4 27 -8 27 -5 0 -8 -9 -7 -20z"/>
<path d="M2675 7752 c4 -8 0 -21 -10 -32 -11 -13 -13 -20 -5 -25 6 -4 14 -4
17 -1 4 3 0 6 -7 6 -9 0 -8 6 5 20 15 17 16 23 5 33 -10 9 -11 9 -5 -1z"/>
<path d="M2742 7740 c0 -14 2 -19 5 -12 2 6 2 18 0 25 -3 6 -5 1 -5 -13z"/>
<path d="M2536 7715 c4 -8 8 -15 10 -15 2 0 4 7 4 15 0 8 -4 15 -10 15 -5 0
-7 -7 -4 -15z"/>
<path d="M2725 7699 c-4 -6 -5 -12 -2 -15 2 -3 7 2 10 11 7 17 1 20 -8 4z"/>
<path d="M2756 7695 c-3 -8 -1 -15 4 -15 6 0 10 7 10 15 0 8 -2 15 -4 15 -2 0
-6 -7 -10 -15z"/>
<path d="M2637 7660 c-3 -11 -1 -20 4 -20 5 0 9 9 9 20 0 11 -2 20 -4 20 -2 0
-6 -9 -9 -20z"/>
<path d="M2670 7660 c0 -11 4 -20 8 -20 4 0 8 9 8 20 0 11 -4 20 -8 20 -4 0
-8 -9 -8 -20z"/>
<path d="M3070 7566 c0 -2 7 -7 16 -10 8 -3 12 -2 9 4 -6 10 -25 14 -25 6z"/>
<path d="M2573 7546 c5 -16 27 -19 27 -3 0 7 -7 14 -15 14 -9 0 -14 -5 -12
-11z"/>
<path d="M2740 7552 c0 -5 7 -16 16 -23 14 -12 16 -11 13 5 -4 20 -29 35 -29
18z"/>
<path d="M2991 7534 c0 -11 3 -14 6 -6 3 7 2 16 -1 19 -3 4 -6 -2 -5 -13z"/>
<path d="M2650 7499 c-10 -17 -8 -21 9 -26 12 -3 21 -9 21 -14 0 -5 9 -9 20
-9 11 0 20 5 20 10 0 6 -8 10 -18 10 -19 0 -42 18 -42 33 0 4 5 5 10 2 6 -3
10 -1 10 4 0 18 -19 12 -30 -10z"/>
<path d="M2560 7490 c0 -5 12 -10 26 -10 14 0 23 -4 19 -9 -7 -12 32 -34 48
-27 7 2 4 5 -6 5 -10 1 -16 5 -12 10 7 12 -34 41 -57 41 -10 0 -18 -4 -18 -10z"/>
<path d="M2865 7480 c3 -5 8 -10 11 -10 2 0 4 5 4 10 0 6 -5 10 -11 10 -5 0
-7 -4 -4 -10z"/>
<path d="M2990 7481 c0 -5 -3 -16 -6 -25 -3 -9 -2 -16 3 -16 5 0 10 11 11 25
1 14 0 25 -3 25 -3 0 -5 -4 -5 -9z"/>
<path d="M3331 7457 c-13 -21 -12 -21 5 -5 10 10 16 20 13 22 -3 3 -11 -5 -18
-17z"/>
<path d="M2865 7440 c-3 -5 -1 -18 4 -27 9 -16 10 -14 11 10 0 28 -5 34 -15
17z"/>
<path d="M2734 7420 c0 -13 4 -16 10 -10 7 7 7 13 0 20 -6 6 -10 3 -10 -10z"/>
<path d="M2895 7430 c3 -5 8 -10 11 -10 2 0 4 5 4 10 0 6 -5 10 -11 10 -5 0
-7 -4 -4 -10z"/>
<path d="M3026 7428 c3 -4 9 -8 15 -8 5 0 9 4 9 8 0 5 -7 9 -15 9 -8 0 -12 -4
-9 -9z"/>
<path d="M3081 7424 c0 -12 6 -27 14 -34 10 -9 15 -9 15 -1 0 6 -4 11 -9 11
-5 0 -12 10 -14 23 -4 21 -4 21 -6 1z"/>
<path d="M2815 7410 c-3 -5 -1 -10 4 -10 6 0 11 5 11 10 0 6 -2 10 -4 10 -3 0
-8 -4 -11 -10z"/>
<path d="M3282 7390 c-25 -33 -30 -56 -6 -25 18 24 36 55 31 55 -2 0 -13 -13
-25 -30z"/>
<path d="M2823 7394 c-7 -3 -9 -12 -6 -21 4 -11 2 -14 -5 -9 -7 4 -12 1 -12
-8 0 -9 5 -16 10 -16 6 0 10 5 10 10 0 20 19 10 23 -12 4 -20 4 -20 6 4 0 14
-5 29 -11 32 -7 4 -3 4 10 2 25 -5 30 9 6 18 -9 3 -16 6 -17 5 -1 0 -7 -3 -14
-5z"/>
<path d="M2960 7390 c0 -5 7 -7 15 -4 8 4 15 2 15 -4 0 -6 -6 -13 -12 -15 -7
-3 -8 -6 -3 -6 18 -1 38 17 31 28 -9 14 -46 15 -46 1z"/>
<path d="M3140 7377 c-12 -21 -12 -21 6 -7 10 8 20 15 22 16 2 1 -1 4 -5 7 -5
3 -15 -4 -23 -16z"/>
<path d="M2720 7374 c0 -15 42 -64 51 -59 15 10 11 48 -5 42 -8 -3 -17 1 -20
9 -5 13 -26 20 -26 8z"/>
<path d="M2920 7350 c0 -5 7 -10 16 -10 8 0 12 5 9 10 -3 6 -10 10 -16 10 -5
0 -9 -4 -9 -10z"/>
<path d="M3235 7327 c-5 -7 -16 -24 -24 -39 -8 -15 -19 -25 -24 -21 -6 3 -7 2
-4 -4 3 -5 -5 -27 -19 -47 -14 -21 -24 -39 -22 -42 3 -2 30 34 61 81 31 47 53
85 49 85 -4 -1 -11 -6 -17 -13z"/>
<path d="M3085 7320 c-3 -5 1 -10 10 -10 9 0 13 5 10 10 -3 6 -8 10 -10 10 -2
0 -7 -4 -10 -10z"/>
<path d="M2860 7316 c0 -2 7 -6 15 -10 8 -3 15 -1 15 4 0 6 -7 10 -15 10 -8 0
-15 -2 -15 -4z"/>
<path d="M3002 7250 c0 -19 2 -27 5 -17 2 9 2 25 0 35 -3 9 -5 1 -5 -18z"/>
<path d="M3030 7211 c0 -5 5 -13 10 -16 6 -3 10 -2 10 4 0 5 -4 13 -10 16 -5
3 -10 2 -10 -4z"/>
<path d="M3108 7118 c-37 -72 -69 -141 -65 -144 1 -2 24 40 49 92 47 93 59
133 16 52z"/>
<path d="M4973 3950 c-116 -24 -229 -117 -286 -237 -30 -64 -32 -75 -31 -173
1 -93 5 -118 39 -217 56 -168 228 -465 323 -556 l39 -38 27 33 c15 18 47 65
70 103 23 39 68 111 99 160 76 123 165 324 184 415 33 159 -1 303 -92 395 -98
97 -239 141 -372 115z m160 -165 c80 -33 137 -110 137 -184 0 -52 -12 -81 -52
-126 -68 -79 -174 -97 -269 -47 -146 76 -143 286 6 353 48 22 130 24 178 4z
m-170 -526 c80 -25 140 -22 214 11 25 11 47 19 49 17 5 -5 -169 -327 -176
-327 -4 0 -21 27 -39 59 -17 32 -56 101 -86 152 -54 92 -67 126 -42 115 6 -2
43 -15 80 -27z"/>
</g>
</svg>
